# xmcd
#
# Track frame offsets:
#	150
#	20341
#	47095
#	62964
#	88659
#	103684
#	123343
#	151767
#	169556
#	184383
#	206094
#
# Disc length: 3041 seconds
#
# Revision: 1
# Processed by: cddbd v1.5.2PL0 Copyright (c) Steve Scherf et al.
# Submitted via: audiograbber 1.83.01
#
DISCID=900bdf0b
DTITLE=Hatred - Destruction Manual
DYEAR=2010
DGENRE=Thrash Metal
TTITLE0=United
TTITLE1=Ratter of hell
TTITLE2=Run Amok
TTITLE3=Black Sun Prophecy
TTITLE4=Moshpit Ritual
TTITLE5=Porker's Revenge
TTITLE6=Submission Of The Uncontrolled
TTITLE7=Speak of the  Devil
TTITLE8=Meta Bastards
TTITLE9=Smash 'Em
TTITLE10=Fanconian Speed
EXTD=
EXTT0=
EXTT1=
EXTT2=
EXTT3=
EXTT4=
EXTT5=
EXTT6=
EXTT7=
EXTT8=
EXTT9=
EXTT10=
PLAYORDER=
